{
	"asset":{
		"generator":"Khronos glTF Blender I/O v4.0.44",
		"version":"2.0"
	},
	"scene":0,
	"scenes":[
		{
			"name":"Scene",
			"nodes":[
				0,
				1,
				2,
				3,
				4,
				5,
				6,
				7
			]
		}
	],
	"nodes":[
		{
			"mesh":0,
			"name":"Room1"
		},
		{
			"mesh":1,
			"name":"Room2"
		},
		{
			"mesh":2,
			"name":"Room3"
		},
		{
			"mesh":3,
			"name":"Room4"
		},
		{
			"mesh":4,
			"name":"Room5"
		},
		{
			"mesh":5,
			"name":"Room6"
		},
		{
			"mesh":6,
			"name":"Room7"
		},
		{
			"name":"Path"
		}
	],
	"meshes":[
		{
			"name":"Plane.010",
			"primitives":[
				{
					"attributes":{
						"POSITION":0,
						"NORMAL":1,
						"TEXCOORD_0":2
					},
					"indices":3
				}
			]
		},
		{
			"name":"Plane.008",
			"primitives":[
				{
					"attributes":{
						"POSITION":4,
						"NORMAL":5,
						"TEXCOORD_0":6
					},
					"indices":7
				}
			]
		},
		{
			"name":"Plane.007",
			"primitives":[
				{
					"attributes":{
						"POSITION":8,
						"NORMAL":9,
						"TEXCOORD_0":10
					},
					"indices":11
				}
			]
		},
		{
			"name":"Plane.005",
			"primitives":[
				{
					"attributes":{
						"POSITION":12,
						"NORMAL":13,
						"TEXCOORD_0":14
					},
					"indices":15
				}
			]
		},
		{
			"name":"Plane.004",
			"primitives":[
				{
					"attributes":{
						"POSITION":16,
						"NORMAL":17,
						"TEXCOORD_0":18
					},
					"indices":19
				}
			]
		},
		{
			"name":"Plane.003",
			"primitives":[
				{
					"attributes":{
						"POSITION":20,
						"NORMAL":21,
						"TEXCOORD_0":22
					},
					"indices":23
				}
			]
		},
		{
			"name":"Plane.006",
			"primitives":[
				{
					"attributes":{
						"POSITION":24,
						"NORMAL":25,
						"TEXCOORD_0":26
					},
					"indices":27
				}
			]
		}
	],
	"accessors":[
		{
			"bufferView":0,
			"componentType":5126,
			"count":80,
			"max":[
				0.6919668316841125,
				0,
				1.727351427078247
			],
			"min":[
				-2.008033275604248,
				-1,
				-2.1999998092651367
			],
			"type":"VEC3"
		},
		{
			"bufferView":1,
			"componentType":5126,
			"count":80,
			"type":"VEC3"
		},
		{
			"bufferView":2,
			"componentType":5126,
			"count":80,
			"type":"VEC2"
		},
		{
			"bufferView":3,
			"componentType":5123,
			"count":252,
			"type":"SCALAR"
		},
		{
			"bufferView":4,
			"componentType":5126,
			"count":44,
			"max":[
				2.2919669151306152,
				0,
				-0.11891870945692062
			],
			"min":[
				0.6919668316841125,
				-1,
				-1.7999998331069946
			],
			"type":"VEC3"
		},
		{
			"bufferView":5,
			"componentType":5126,
			"count":44,
			"type":"VEC3"
		},
		{
			"bufferView":6,
			"componentType":5126,
			"count":44,
			"type":"VEC2"
		},
		{
			"bufferView":7,
			"componentType":5123,
			"count":120,
			"type":"SCALAR"
		},
		{
			"bufferView":8,
			"componentType":5126,
			"count":36,
			"max":[
				2.2919669151306152,
				0,
				0.960540771484375
			],
			"min":[
				0.6919668316841125,
				-1,
				-0.11891870945692062
			],
			"type":"VEC3"
		},
		{
			"bufferView":9,
			"componentType":5126,
			"count":36,
			"type":"VEC3"
		},
		{
			"bufferView":10,
			"componentType":5126,
			"count":36,
			"type":"VEC2"
		},
		{
			"bufferView":11,
			"componentType":5123,
			"count":84,
			"type":"SCALAR"
		},
		{
			"bufferView":12,
			"componentType":5126,
			"count":66,
			"max":[
				2.2919669151306152,
				0,
				2.42672061920166
			],
			"min":[
				0.6919667720794678,
				-1,
				0.960540771484375
			],
			"type":"VEC3"
		},
		{
			"bufferView":13,
			"componentType":5126,
			"count":66,
			"type":"VEC3"
		},
		{
			"bufferView":14,
			"componentType":5126,
			"count":66,
			"type":"VEC2"
		},
		{
			"bufferView":15,
			"componentType":5123,
			"count":192,
			"type":"SCALAR"
		},
		{
			"bufferView":16,
			"componentType":5126,
			"count":40,
			"max":[
				0.6919667720794678,
				0,
				2.42672061920166
			],
			"min":[
				5.850102752447128e-05,
				-1,
				1.7273513078689575
			],
			"type":"VEC3"
		},
		{
			"bufferView":17,
			"componentType":5126,
			"count":40,
			"type":"VEC3"
		},
		{
			"bufferView":18,
			"componentType":5126,
			"count":40,
			"type":"VEC2"
		},
		{
			"bufferView":19,
			"componentType":5123,
			"count":96,
			"type":"SCALAR"
		},
		{
			"bufferView":20,
			"componentType":5126,
			"count":48,
			"max":[
				5.900000178371556e-05,
				0,
				2.42672061920166
			],
			"min":[
				-0.8682511448860168,
				-1,
				1.727351427078247
			],
			"type":"VEC3"
		},
		{
			"bufferView":21,
			"componentType":5126,
			"count":48,
			"type":"VEC3"
		},
		{
			"bufferView":22,
			"componentType":5126,
			"count":48,
			"type":"VEC2"
		},
		{
			"bufferView":23,
			"componentType":5123,
			"count":144,
			"type":"SCALAR"
		},
		{
			"bufferView":24,
			"componentType":5126,
			"count":40,
			"max":[
				-0.8682510256767273,
				0,
				2.42672061920166
			],
			"min":[
				-1.5805937051773071,
				-1,
				1.727351427078247
			],
			"type":"VEC3"
		},
		{
			"bufferView":25,
			"componentType":5126,
			"count":40,
			"type":"VEC3"
		},
		{
			"bufferView":26,
			"componentType":5126,
			"count":40,
			"type":"VEC2"
		},
		{
			"bufferView":27,
			"componentType":5123,
			"count":96,
			"type":"SCALAR"
		}
	],
	"bufferViews":[
		{
			"buffer":0,
			"byteLength":960,
			"byteOffset":0,
			"target":34962
		},
		{
			"buffer":0,
			"byteLength":960,
			"byteOffset":960,
			"target":34962
		},
		{
			"buffer":0,
			"byteLength":640,
			"byteOffset":1920,
			"target":34962
		},
		{
			"buffer":0,
			"byteLength":504,
			"byteOffset":2560,
			"target":34963
		},
		{
			"buffer":0,
			"byteLength":528,
			"byteOffset":3064,
			"target":34962
		},
		{
			"buffer":0,
			"byteLength":528,
			"byteOffset":3592,
			"target":34962
		},
		{
			"buffer":0,
			"byteLength":352,
			"byteOffset":4120,
			"target":34962
		},
		{
			"buffer":0,
			"byteLength":240,
			"byteOffset":4472,
			"target":34963
		},
		{
			"buffer":0,
			"byteLength":432,
			"byteOffset":4712,
			"target":34962
		},
		{
			"buffer":0,
			"byteLength":432,
			"byteOffset":5144,
			"target":34962
		},
		{
			"buffer":0,
			"byteLength":288,
			"byteOffset":5576,
			"target":34962
		},
		{
			"buffer":0,
			"byteLength":168,
			"byteOffset":5864,
			"target":34963
		},
		{
			"buffer":0,
			"byteLength":792,
			"byteOffset":6032,
			"target":34962
		},
		{
			"buffer":0,
			"byteLength":792,
			"byteOffset":6824,
			"target":34962
		},
		{
			"buffer":0,
			"byteLength":528,
			"byteOffset":7616,
			"target":34962
		},
		{
			"buffer":0,
			"byteLength":384,
			"byteOffset":8144,
			"target":34963
		},
		{
			"buffer":0,
			"byteLength":480,
			"byteOffset":8528,
			"target":34962
		},
		{
			"buffer":0,
			"byteLength":480,
			"byteOffset":9008,
			"target":34962
		},
		{
			"buffer":0,
			"byteLength":320,
			"byteOffset":9488,
			"target":34962
		},
		{
			"buffer":0,
			"byteLength":192,
			"byteOffset":9808,
			"target":34963
		},
		{
			"buffer":0,
			"byteLength":576,
			"byteOffset":10000,
			"target":34962
		},
		{
			"buffer":0,
			"byteLength":576,
			"byteOffset":10576,
			"target":34962
		},
		{
			"buffer":0,
			"byteLength":384,
			"byteOffset":11152,
			"target":34962
		},
		{
			"buffer":0,
			"byteLength":288,
			"byteOffset":11536,
			"target":34963
		},
		{
			"buffer":0,
			"byteLength":480,
			"byteOffset":11824,
			"target":34962
		},
		{
			"buffer":0,
			"byteLength":480,
			"byteOffset":12304,
			"target":34962
		},
		{
			"buffer":0,
			"byteLength":320,
			"byteOffset":12784,
			"target":34962
		},
		{
			"buffer":0,
			"byteLength":192,
			"byteOffset":13104,
			"target":34963
		}
	],
	"buffers":[
		{
			"byteLength":13296,
			"uri":"test%20room.bin"
		}
	]
}
